<mxfile host="app.diagrams.net" modified="2024-02-04T10:02:25.209Z" agent="Mozilla/5.0 (Windows NT 10.0; Win64; x64) AppleWebKit/537.36 (KHTML, like Gecko) Chrome/121.0.0.0 Safari/537.36 Edg/121.0.0.0" etag="k8LE8JQPNSrNAj-PbtGs" version="23.1.1" type="github">
  <diagram id="C5RBs43oDa-KdzZeNtuy" name="Page-1">
    <mxGraphModel dx="898" dy="612" grid="0" gridSize="10" guides="1" tooltips="1" connect="1" arrows="1" fold="1" page="0" pageScale="1" pageWidth="827" pageHeight="1169" background="#FFFFFF" math="0" shadow="0">
      <root>
        <mxCell id="WIyWlLk6GJQsqaUBKTNV-0" />
        <mxCell id="WIyWlLk6GJQsqaUBKTNV-1" parent="WIyWlLk6GJQsqaUBKTNV-0" />
        <mxCell id="WIyWlLk6GJQsqaUBKTNV-3" value="&lt;font style=&quot;font-size: 18px;&quot;&gt;开始&lt;/font&gt;" style="rounded=1;whiteSpace=wrap;html=1;fontSize=12;glass=0;strokeWidth=1;shadow=0;" parent="WIyWlLk6GJQsqaUBKTNV-1" vertex="1">
          <mxGeometry x="160" y="80" width="120" height="40" as="geometry" />
        </mxCell>
        <mxCell id="sj2lnTMcZ8h3ANVrbfql-0" value="&lt;font style=&quot;font-size: 18px;&quot;&gt;用户在菜单点击&lt;br&gt;“画梦”&lt;/font&gt;" style="rounded=1;whiteSpace=wrap;html=1;absoluteArcSize=1;arcSize=14;strokeWidth=2;" vertex="1" parent="WIyWlLk6GJQsqaUBKTNV-1">
          <mxGeometry x="140" y="169" width="160" height="66" as="geometry" />
        </mxCell>
        <mxCell id="sj2lnTMcZ8h3ANVrbfql-1" value="公众号自动回复操作提示，&lt;br&gt;为用户说明梦境的描述规则" style="rounded=1;whiteSpace=wrap;html=1;absoluteArcSize=1;arcSize=14;strokeWidth=2;" vertex="1" parent="WIyWlLk6GJQsqaUBKTNV-1">
          <mxGeometry x="123" y="295" width="217" height="100" as="geometry" />
        </mxCell>
        <mxCell id="sj2lnTMcZ8h3ANVrbfql-2" value="用户按照规则做文字描述，&lt;br&gt;发送给公众号" style="rounded=1;whiteSpace=wrap;html=1;absoluteArcSize=1;arcSize=14;strokeWidth=2;" vertex="1" parent="WIyWlLk6GJQsqaUBKTNV-1">
          <mxGeometry x="143" y="459" width="199" height="104" as="geometry" />
        </mxCell>
        <mxCell id="sj2lnTMcZ8h3ANVrbfql-4" value="公众号解析文字，&lt;br&gt;是否正确触发“画梦”功能" style="strokeWidth=2;html=1;shape=mxgraph.flowchart.decision;whiteSpace=wrap;" vertex="1" parent="WIyWlLk6GJQsqaUBKTNV-1">
          <mxGeometry x="132" y="610" width="251" height="155" as="geometry" />
        </mxCell>
        <mxCell id="sj2lnTMcZ8h3ANVrbfql-5" value="后台解析文字内容，微信用户的信息" style="rounded=1;whiteSpace=wrap;html=1;absoluteArcSize=1;arcSize=14;strokeWidth=2;" vertex="1" parent="WIyWlLk6GJQsqaUBKTNV-1">
          <mxGeometry x="117" y="832" width="296" height="130" as="geometry" />
        </mxCell>
        <mxCell id="sj2lnTMcZ8h3ANVrbfql-6" value="判断是否拥有绘制图片的权限" style="strokeWidth=2;html=1;shape=mxgraph.flowchart.decision;whiteSpace=wrap;" vertex="1" parent="WIyWlLk6GJQsqaUBKTNV-1">
          <mxGeometry x="125" y="1048" width="318" height="195" as="geometry" />
        </mxCell>
        <mxCell id="sj2lnTMcZ8h3ANVrbfql-8" value="提示无法绘制图片，并说明原因" style="rounded=1;whiteSpace=wrap;html=1;absoluteArcSize=1;arcSize=14;strokeWidth=2;" vertex="1" parent="WIyWlLk6GJQsqaUBKTNV-1">
          <mxGeometry x="564" y="1080" width="100" height="100" as="geometry" />
        </mxCell>
        <mxCell id="sj2lnTMcZ8h3ANVrbfql-9" value="图片是否绘制成功" style="strokeWidth=2;html=1;shape=mxgraph.flowchart.decision;whiteSpace=wrap;" vertex="1" parent="WIyWlLk6GJQsqaUBKTNV-1">
          <mxGeometry x="112" y="1534" width="369" height="158" as="geometry" />
        </mxCell>
        <mxCell id="sj2lnTMcZ8h3ANVrbfql-10" value="传入文字内容，调用绘制图片的接口，等待图片绘制" style="rounded=1;whiteSpace=wrap;html=1;absoluteArcSize=1;arcSize=14;strokeWidth=2;" vertex="1" parent="WIyWlLk6GJQsqaUBKTNV-1">
          <mxGeometry x="140" y="1295" width="311" height="171" as="geometry" />
        </mxCell>
        <mxCell id="sj2lnTMcZ8h3ANVrbfql-11" value="得到绘制的图片，对图片进行二次加工，在图片下方添加二维码；&lt;br&gt;二维码中包含公众号的ID，用户的信息；&lt;br&gt;二维码用于分享扫描" style="rounded=1;whiteSpace=wrap;html=1;absoluteArcSize=1;arcSize=14;strokeWidth=2;" vertex="1" parent="WIyWlLk6GJQsqaUBKTNV-1">
          <mxGeometry x="125" y="1789" width="398" height="173" as="geometry" />
        </mxCell>
      </root>
    </mxGraphModel>
  </diagram>
</mxfile>
